<svg width="59" height="59" viewBox="0 0 59 59" fill="none" xmlns="http://www.w3.org/2000/svg">
<g clip-path="url(#clip0)">
<path d="M3.77739 2.70573L3.24186 3.24164C2.71914 3.76474 2.36733 4.43405 2.23286 5.16123C2.09846 5.88803 2.18749 6.63851 2.48822 7.31369L2.48786 7.31287L4.15841 6.57039L2.48867 7.31471L3.77739 2.70573ZM3.77739 2.70573H3.92743M3.77739 2.70573H3.92743M3.92743 2.70573C4.30532 2.47551 4.72395 2.31452 5.16375 2.23304C5.88943 2.09861 6.6388 2.18693 7.31333 2.4864L7.31403 2.48671L53.8508 23.1701L53.8526 23.1709C54.5017 23.4602 55.0524 23.9324 55.4373 24.5298C55.8223 25.1271 56.0248 25.8237 56.0202 26.5344C56.0155 27.245 55.8039 27.9389 55.4111 28.5311C55.0184 29.1234 54.4615 29.5884 53.8087 29.8692L53.8062 29.8702L37.0495 37.0482L29.8766 53.7978C29.8763 53.7984 29.8761 53.799 29.8758 53.7995L3.92743 2.70573ZM23.171 53.849L24.8418 53.1071L23.1713 53.8496L23.171 53.849ZM6.57154 4.15726L6.57156 4.15721L6.57154 4.15726Z" fill="#292D3E" stroke="white" stroke-width="3.65625"/>
</g>
<defs>
<clipPath id="clip0">
<rect width="58.5" height="58.5" fill="white" transform="translate(0 0.25)"/>
</clipPath>
</defs>
</svg>
