<svg width="25" height="25" viewBox="0 0 674 481" fill="none" xmlns="http://www.w3.org/2000/svg">
<g filter="url(#filter0_d)">
<path d="M21 1H380.008V440H21V1Z" fill="#393F56"/>
<path fill-rule="evenodd" clip-rule="evenodd" d="M638.927 245.418C638.855 245.489 638.807 245.581 638.789 245.68C638.77 245.78 638.783 245.883 638.824 245.975L644.481 258.703C644.52 258.792 644.585 258.867 644.667 258.92C644.749 258.973 644.844 259.001 644.942 259C645.039 258.999 645.134 258.97 645.215 258.916C645.296 258.862 645.36 258.786 645.398 258.696L647.289 254L652.206 251.888C652.295 251.85 652.371 251.786 652.425 251.705C652.479 251.624 652.508 251.529 652.508 251.432C652.509 251.335 652.481 251.239 652.429 251.158C652.376 251.076 652.301 251.011 652.212 250.972L639.484 245.315C639.392 245.274 639.289 245.262 639.19 245.28C639.091 245.299 638.998 245.347 638.927 245.418Z" fill="#393F56"/>
<path d="M21 0.5H20.5V1V440V440.5H21H380.008H380.508V440V1V0.5H380.008H21ZM638.574 245.064L638.573 245.064C638.43 245.208 638.334 245.391 638.297 245.59C638.261 245.788 638.285 245.993 638.367 246.178C638.367 246.178 638.367 246.178 638.367 246.178L644.024 258.906C644.103 259.084 644.232 259.235 644.396 259.34C644.56 259.446 644.751 259.501 644.945 259.5C645.14 259.499 645.33 259.44 645.492 259.332C645.655 259.224 645.782 259.071 645.858 258.892L645.862 258.883L647.676 254.378L652.403 252.347L652.206 251.888L652.403 252.347C652.582 252.271 652.734 252.143 652.842 251.981C652.949 251.819 653.007 251.629 653.008 251.435C653.01 251.241 652.954 251.05 652.849 250.887C652.744 250.724 652.593 250.594 652.415 250.515L652.415 250.515L639.687 244.858L639.484 245.315L639.687 244.858C639.502 244.776 639.297 244.752 639.099 244.789C638.902 244.825 638.718 244.92 638.574 245.064Z" stroke="white"/>
</g>
<defs>
<filter id="filter0_d" x="0" y="0" width="673.508" height="481" filterUnits="userSpaceOnUse" color-interpolation-filters="sRGB">
<feFlood flood-opacity="0" result="BackgroundImageFix"/>
<feColorMatrix in="SourceAlpha" type="matrix" values="0 0 0 0 0 0 0 0 0 0 0 0 0 0 0 0 0 0 127 0"/>
<feOffset dy="20"/>
<feGaussianBlur stdDeviation="10"/>
<feColorMatrix type="matrix" values="0 0 0 0 0 0 0 0 0 0 0 0 0 0 0 0 0 0 0.63 0"/>
<feBlend mode="normal" in2="BackgroundImageFix" result="effect1_dropShadow"/>
<feBlend mode="normal" in="SourceGraphic" in2="effect1_dropShadow" result="shape"/>
</filter>
</defs>
</svg>
